<svg xmlns="http://www.w3.org/2000/svg" xmlns:xlink="http://www.w3.org/1999/xlink" width="57.325" height="22.4" viewBox="0 0 57.325 22.4">
  <defs>
    <linearGradient id="linear-gradient" x1="0.5" y1="0.5" x2="1" y2="0.5" gradientUnits="objectBoundingBox">
      <stop offset="0" stop-color="#ffc756"/>
      <stop offset="1" stop-color="#fea900"/>
    </linearGradient>
    <linearGradient id="linear-gradient-3" x1="0.47" y1="0.5" y2="0.5" xlink:href="#linear-gradient"/>
    <radialGradient id="radial-gradient" cx="0.5" cy="0.5" r="0.5" gradientUnits="objectBoundingBox">
      <stop offset="0" stop-color="#ffc756"/>
      <stop offset="1" stop-color="#ffb92d"/>
    </radialGradient>
  </defs>
  <g id="sd_logo" transform="translate(-94 -71.994)">
    <path id="Subtraction_4" data-name="Subtraction 4" d="M21.718,4.3H0L2.231,0H21.718V4.3Z" transform="translate(94 90.053)" fill="url(#linear-gradient)"/>
    <path id="Subtraction_5" data-name="Subtraction 5" d="M21.344,4.3H0L2.193,0H21.344V4.3Z" transform="translate(128.292 76.314) rotate(180)" fill="url(#linear-gradient)"/>
    <path id="Subtraction_2" data-name="Subtraction 2" d="M19.823,4.3H0L2.485,0H19.823V4.3Z" transform="translate(131.502 71.999)" fill="url(#linear-gradient-3)"/>
    <path id="Subtraction_3" data-name="Subtraction 3" d="M30.32,4.3H0L2.485,0H30.32V4.3Z" transform="translate(121.005 90.053)" fill="url(#linear-gradient-3)"/>
    <path id="Subtraction_1" data-name="Subtraction 1" d="M34.919,22.395h-4v-.027h-.3V0h4.307V22.394ZM0,20.989v-2.9H1.674L0,20.986Z" transform="translate(116.406 71.999)" fill="#ffc756"/>
    <g id="Group_1" data-name="Group 1" transform="translate(137.915 80.075)">
      <rect id="Rectangle_10" data-name="Rectangle 10" width="1.75" height="1.75" rx="0.875" transform="translate(2.624)" fill="url(#radial-gradient)"/>
      <rect id="Rectangle_13" data-name="Rectangle 13" width="1.75" height="1.75" rx="0.875" transform="translate(2.624 5.249)" fill="url(#radial-gradient)"/>
      <rect id="Rectangle_11" data-name="Rectangle 11" width="1.75" height="1.75" rx="0.875" transform="translate(0 2.624)" fill="url(#radial-gradient)"/>
      <rect id="Rectangle_12" data-name="Rectangle 12" width="1.75" height="1.75" rx="0.875" transform="translate(5.249 2.624)" fill="url(#radial-gradient)"/>
    </g>
    <g id="Group_2" data-name="Group 2" transform="translate(128.292 80.075)">
      <rect id="Rectangle_13-2" data-name="Rectangle 13" width="1.75" height="6.998" rx="0.875" transform="translate(2.624)" fill="url(#radial-gradient)"/>
      <rect id="Rectangle_11-2" data-name="Rectangle 11" width="6.998" height="1.75" rx="0.875" transform="translate(0 2.624)" fill="url(#radial-gradient)"/>
      <rect id="Rectangle_12-2" data-name="Rectangle 12" width="4.374" height="1.75" rx="0.875" transform="translate(2.624 2.624)" fill="url(#radial-gradient)"/>
    </g>
    <path id="Path_4" data-name="Path 4" d="M-211.789,94.361-223,76.1l2.471-4.106,11.159,18.089Z" transform="translate(327.498 0)" fill="#ffc756"/>
  </g>
</svg>
