<svg xmlns="http://www.w3.org/2000/svg" xmlns:xlink="http://www.w3.org/1999/xlink" width="488.8" height="191.002" viewBox="0 0 488.8 191.002">
  <defs>
    <linearGradient id="linear-gradient" x1="0.5" y1="0.5" x2="1" y2="0.5" gradientUnits="objectBoundingBox">
      <stop offset="0" stop-color="#ffb622"/>
      <stop offset="1" stop-color="#c58300"/>
    </linearGradient>
    <linearGradient id="linear-gradient-3" x1="0.47" y1="0.5" y2="0.5" xlink:href="#linear-gradient"/>
    <radialGradient id="radial-gradient" cx="0.5" cy="0.5" r="0.5" gradientUnits="objectBoundingBox">
      <stop offset="0" stop-color="#ffb622"/>
      <stop offset="1" stop-color="#eb9c00"/>
    </radialGradient>
  </defs>
  <g id="sd_logo" transform="translate(-94 -71.994)">
    <path id="Subtraction_4" data-name="Subtraction 4" d="M185.19,36.7H0L19.023,0H185.19V36.7Z" transform="translate(94 225.985)" fill="url(#linear-gradient)"/>
    <path id="Subtraction_5" data-name="Subtraction 5" d="M182,36.7H0L18.7,0H182V36.7Z" transform="translate(386.397 108.836) rotate(180)" fill="url(#linear-gradient)"/>
    <path id="Subtraction_2" data-name="Subtraction 2" d="M169.027,36.7H0L21.191,0H169.027V36.7Z" transform="translate(413.773 72.04)" fill="url(#linear-gradient-3)"/>
    <path id="Subtraction_3" data-name="Subtraction 3" d="M258.537,36.7H0L21.191,0H258.537V36.7Z" transform="translate(324.264 225.985)" fill="url(#linear-gradient-3)"/>
    <path id="Subtraction_1" data-name="Subtraction 1" d="M297.751,190.955H263.627v-.228h-2.6V0h36.722V190.955ZM0,178.973V154.28H14.273L.014,178.949Z" transform="translate(285.049 72.04)" fill="#ffb622"/>
    <g id="Group_1" data-name="Group 1" transform="translate(468.449 140.905)">
      <rect id="Rectangle_10" data-name="Rectangle 10" width="14.919" height="14.919" rx="2" transform="translate(22.378)" fill="url(#radial-gradient)"/>
      <rect id="Rectangle_13" data-name="Rectangle 13" width="14.919" height="14.919" rx="2" transform="translate(22.378 44.756)" fill="url(#radial-gradient)"/>
      <rect id="Rectangle_11" data-name="Rectangle 11" width="14.919" height="14.919" rx="2" transform="translate(0 22.378)" fill="url(#radial-gradient)"/>
      <rect id="Rectangle_12" data-name="Rectangle 12" width="14.919" height="14.919" rx="2" transform="translate(44.756 22.378)" fill="url(#radial-gradient)"/>
    </g>
    <g id="Group_2" data-name="Group 2" transform="translate(386.397 140.905)">
      <rect id="Rectangle_13-2" data-name="Rectangle 13" width="14.919" height="59.674" rx="2" transform="translate(22.378)" fill="url(#radial-gradient)"/>
      <rect id="Rectangle_11-2" data-name="Rectangle 11" width="59.674" height="14.919" rx="2" transform="translate(0 22.378)" fill="url(#radial-gradient)"/>
      <rect id="Rectangle_12-2" data-name="Rectangle 12" width="37.296" height="14.919" rx="2" transform="translate(22.378 22.378)" fill="url(#radial-gradient)"/>
    </g>
    <path id="Path_4" data-name="Path 4" d="M-127.4,262.719-223,107.006l21.072-35.012,95.153,154.244Z" transform="translate(406.508 0)" fill="#ffb622"/>
  </g>
</svg>
